<svg viewBox="0 0 200 200" xmlns="http://www.w3.org/2000/svg">
  <path fill="#FF0066" d="M42.2,-69.5C51.1,-67.9,52.3,-49.4,53.3,-35C54.3,-20.6,55.2,-10.3,55.2,0C55.2,10.3,54.4,20.6,48.5,26.6C42.6,32.5,31.6,34.1,22.6,39.2C13.7,44.4,6.9,53.2,0.3,52.7C-6.3,52.3,-12.6,42.6,-26.3,40.1C-39.9,37.6,-60.8,42.4,-70.9,36.9C-81.1,31.4,-80.6,15.7,-76.4,2.4C-72.3,-11,-64.7,-21.9,-56.8,-31.5C-49,-41,-41,-49,-31.5,-50.2C-22,-51.4,-11,-45.7,2.8,-50.6C16.6,-55.5,33.3,-71,42.2,-69.5Z" transform="translate(100 100)" />
</svg>