<svg xmlns="http://www.w3.org/2000/svg" version="1.1" xmlns:xlink="http://www.w3.org/1999/xlink" xmlns:svgjs="http://svgjs.dev/svgjs" width="2000" height="757" viewBox="0 0 2000 757"><g transform="matrix(1,0,0,1,-1.2121212121213603,-1.1520650112395288)"><svg viewBox="0 0 396 150" data-background-color="#ffffff" preserveAspectRatio="xMidYMid meet" height="757" width="2000" xmlns="http://www.w3.org/2000/svg" xmlns:xlink="http://www.w3.org/1999/xlink"><g id="tight-bounds" transform="matrix(1,0,0,1,0.24000000000003752,0.22828236682421732)"><svg viewBox="0 0 395.5199999999999 149.54343526635157" height="149.54343526635157" width="395.5199999999999"><g><svg viewBox="0 0 395.5199999999999 149.54343526635157" height="149.54343526635157" width="395.5199999999999"><g><svg viewBox="0 0 395.5199999999999 149.54343526635157" height="149.54343526635157" width="395.5199999999999"><g><svg viewBox="0 0 627.8833485191532 237.39844479190447" height="149.54343526635157" width="395.5199999999999"><g transform="matrix(1,0,0,1,232.36334851915322,32.80977058990865)"><svg viewBox="0 0 395.52 171.77890361208716" height="171.77890361208716" width="395.52"><g id="textblocktransform"><svg viewBox="0 0 395.52 171.77890361208716" height="171.77890361208716" width="395.52" id="textblock"><g><svg viewBox="0 0 395.52 92.64933239634576" height="92.64933239634576" width="395.52"><g transform="matrix(1,0,0,1,0,0)"><svg width="395.52" viewBox="2.8 -37.5 213.42999999999998 50" height="92.64933239634576" data-palette-color="#d498ca"><path d="M15.45-32.05L21.05-32.8 14.85-3.9Q16.45-2.6 18.1-2.6L18.1-2.6Q19.95-2.6 21.48-3.63 23-4.65 24.23-6.4 25.45-8.15 26.33-10.43 27.2-12.7 27.8-15.2 28.4-17.7 28.7-20.25 29-22.8 29-25.1L29-25.1Q29-28.05 28.45-30.08 27.9-32.1 26.8-33.35 25.7-34.6 24.03-35.15 22.35-35.7 20.15-35.7L20.15-35.7Q17.6-35.7 15.13-34.85 12.65-34 10.73-32.4 8.8-30.8 7.63-28.48 6.45-26.15 6.45-23.2L6.45-23.2Q6.45-21.65 7.1-20.83 7.75-20 8.15-19.65L8.15-19.65Q5.65-19.65 4.23-20.7 2.8-21.75 2.8-24.3L2.8-24.3Q2.8-26.85 4.3-29.25 5.8-31.65 8.33-33.48 10.85-35.3 14.18-36.4 17.5-37.5 21.2-37.5L21.2-37.5Q24.9-37.5 27.48-36.38 30.05-35.25 31.68-33.25 33.3-31.25 34.02-28.58 34.75-25.9 34.75-22.8L34.75-22.8Q34.75-20.05 34.2-17.25 33.65-14.45 32.65-11.85 31.65-9.25 30.33-6.95 29-4.65 27.45-2.98 25.9-1.3 24.2-0.33 22.5 0.65 20.8 0.65L20.8 0.65Q19.3 0.65 17.75-0.05 16.2-0.75 14.5-2.25L14.5-2.25 14.05 0 8.55 0 15.45-32.05ZM52.85-25L57.9-25 54.25-8Q54-7 54-5.75L54-5.75Q54-4.9 54.3-4.2 54.6-3.5 55.55-3.5L55.55-3.5Q56.75-3.5 57.97-4.95 59.2-6.4 60.3-8.95L60.3-8.95 62.15-8.95Q60.95-5.8 59.75-3.98 58.55-2.15 57.42-1.2 56.3-0.25 55.27 0.03 54.25 0.3 53.45 0.3L53.45 0.3Q51.8 0.3 50.72-0.85 49.65-2 49.45-4.6L49.45-4.6Q48.3-2.55 46.27-1.13 44.25 0.3 41.85 0.3L41.85 0.3Q40.65 0.3 39.5-0.13 38.35-0.55 37.45-1.53 36.55-2.5 36-4.03 35.45-5.55 35.45-7.75L35.45-7.75Q35.45-9.45 35.82-11.4 36.2-13.35 36.9-15.3 37.6-17.25 38.7-19.05 39.8-20.85 41.2-22.23 42.6-23.6 44.37-24.43 46.15-25.25 48.25-25.25L48.25-25.25Q49.45-25.25 50.7-24.7 51.95-24.15 52.35-22.6L52.35-22.6 52.85-25ZM43.95-3.5L43.95-3.5Q44.75-3.5 45.6-3.93 46.45-4.35 47.22-5.08 48-5.8 48.6-6.8 49.2-7.8 49.45-8.95L49.45-8.95 51.85-20.3Q51.7-21.15 51.1-21.83 50.5-22.5 49.35-22.5L49.35-22.5Q47.3-22.5 45.7-21 44.1-19.5 43-17.35 41.9-15.2 41.35-12.75 40.8-10.3 40.8-8.45L40.8-8.45Q40.8-5.6 41.65-4.55 42.5-3.5 43.95-3.5ZM63.65-25L68.7-25 67.8-20.9Q68.5-21.7 69.25-22.48 70-23.25 70.82-23.88 71.65-24.5 72.55-24.88 73.45-25.25 74.5-25.25L74.5-25.25Q76-25.25 76.65-24.58 77.3-23.9 77.3-22.9L77.3-22.9Q77.3-21.95 76.97-21.33 76.65-20.7 76.2-20.33 75.75-19.95 75.25-19.8 74.75-19.65 74.4-19.65L74.4-19.65Q73.95-19.65 73.72-19.85 73.5-20.05 73.27-20.28 73.05-20.5 72.75-20.7 72.45-20.9 71.9-20.9L71.9-20.9Q70.8-20.9 69.57-20.13 68.35-19.35 67.3-18.45L67.3-18.45 63.35 0 58.35 0 63.65-25ZM94.64-20.1L94.64-20.1Q94.64-15.85 91.32-13.23 87.99-10.6 82.14-10L82.14-10Q82.09-9.6 82.09-9.22 82.09-8.85 82.09-8.45L82.09-8.45Q82.09-5.9 83.07-4.7 84.04-3.5 86.44-3.5L86.44-3.5Q88.84-3.5 91.19-4.75 93.54-6 95.49-8.95L95.49-8.95 97.09-8.95Q96.09-7.1 94.69-5.43 93.29-3.75 91.59-2.48 89.89-1.2 87.97-0.45 86.04 0.3 84.04 0.3L84.04 0.3Q82.59 0.3 81.27-0.15 79.94-0.6 78.92-1.55 77.89-2.5 77.27-4.03 76.64-5.55 76.64-7.7L76.64-7.7Q76.64-9.1 76.94-10.95 77.24-12.8 77.87-14.75 78.49-16.7 79.52-18.6 80.54-20.5 81.94-21.98 83.34-23.45 85.17-24.35 86.99-25.25 89.29-25.25L89.29-25.25Q90.34-25.25 91.29-25.03 92.24-24.8 92.99-24.23 93.74-23.65 94.19-22.65 94.64-21.65 94.64-20.1ZM89.74-22.8L89.74-22.8Q88.34-22.8 87.14-21.83 85.94-20.85 85.02-19.3 84.09-17.75 83.42-15.83 82.74-13.9 82.39-11.95L82.39-11.95Q86.59-12.6 89.09-14.9 91.59-17.2 91.59-20.6L91.59-20.6Q91.59-21.45 91.27-22.13 90.94-22.8 89.74-22.8ZM112.29-25L117.29-25 112.19-1Q113.54-1.45 114.67-2.02 115.79-2.6 116.69-3.53 117.59-4.45 118.34-5.75 119.09-7.05 119.74-8.95L119.74-8.95 121.59-8.95Q120.69-6.3 119.72-4.63 118.74-2.95 117.54-1.88 116.34-0.8 114.92-0.2 113.49 0.4 111.79 0.8L111.79 0.8 111.14 4Q110.59 6.7 109.92 8.35 109.24 10 108.42 10.93 107.59 11.85 106.59 12.18 105.59 12.5 104.34 12.5L104.34 12.5Q102.04 12.5 100.44 11.48 98.84 10.45 98.84 8L98.84 8Q98.84 6.75 99.57 5.68 100.29 4.6 101.44 3.65 102.59 2.7 104.02 1.95 105.44 1.2 106.84 0.65L106.84 0.65 107.79-3.95Q106.49-2.55 104.82-1.68 103.14-0.8 101.29-0.8L101.29-0.8Q100.09-0.8 98.94-1.23 97.79-1.65 96.89-2.63 95.99-3.6 95.44-5.13 94.89-6.65 94.89-8.85L94.89-8.85Q94.89-11.2 95.72-14.05 96.54-16.9 98.14-19.4 99.74-21.9 102.14-23.58 104.54-25.25 107.69-25.25L107.69-25.25Q108.89-25.25 110.14-24.7 111.39-24.15 111.79-22.6L111.79-22.6 112.29-25ZM103.39-4.6L103.39-4.6Q104.09-4.6 104.94-4.98 105.79-5.35 106.57-5.98 107.34-6.6 107.99-7.48 108.64-8.35 108.94-9.4L108.94-9.4 111.29-20.35Q111.14-21.15 110.54-21.83 109.94-22.5 108.79-22.5L108.79-22.5Q106.74-22.5 105.14-21.13 103.54-19.75 102.44-17.78 101.34-15.8 100.79-13.55 100.24-11.3 100.24-9.55L100.24-9.55Q100.24-6.7 101.09-5.65 101.94-4.6 103.39-4.6ZM102.64 9.9L102.64 9.9Q104.04 9.9 104.79 8.3 105.54 6.7 106.09 4.1L106.09 4.1 106.44 2.5Q103.64 3.7 102.22 5.15 100.79 6.6 100.79 7.95L100.79 7.95Q100.79 8.8 101.27 9.35 101.74 9.9 102.64 9.9ZM136.54-25L141.59-25 137.94-8Q137.69-7 137.69-5.75L137.69-5.75Q137.69-4.9 137.99-4.2 138.29-3.5 139.24-3.5L139.24-3.5Q140.44-3.5 141.66-4.95 142.89-6.4 143.99-8.95L143.99-8.95 145.84-8.95Q144.64-5.8 143.44-3.98 142.24-2.15 141.11-1.2 139.99-0.25 138.96 0.03 137.94 0.3 137.14 0.3L137.14 0.3Q135.49 0.3 134.41-0.85 133.34-2 133.14-4.6L133.14-4.6Q131.99-2.55 129.96-1.13 127.94 0.3 125.54 0.3L125.54 0.3Q124.34 0.3 123.19-0.13 122.04-0.55 121.14-1.53 120.24-2.5 119.69-4.03 119.14-5.55 119.14-7.75L119.14-7.75Q119.14-9.45 119.51-11.4 119.89-13.35 120.59-15.3 121.29-17.25 122.39-19.05 123.49-20.85 124.89-22.23 126.29-23.6 128.06-24.43 129.84-25.25 131.94-25.25L131.94-25.25Q133.14-25.25 134.39-24.7 135.64-24.15 136.04-22.6L136.04-22.6 136.54-25ZM127.64-3.5L127.64-3.5Q128.44-3.5 129.29-3.93 130.14-4.35 130.91-5.08 131.69-5.8 132.29-6.8 132.89-7.8 133.14-8.95L133.14-8.95 135.54-20.3Q135.39-21.15 134.79-21.83 134.19-22.5 133.04-22.5L133.04-22.5Q130.99-22.5 129.39-21 127.79-19.5 126.69-17.35 125.59-15.2 125.04-12.75 124.49-10.3 124.49-8.45L124.49-8.45Q124.49-5.6 125.34-4.55 126.19-3.5 127.64-3.5ZM172.44-5.95L172.44-5.95Q172.44-4.9 172.74-4.2 173.04-3.5 173.94-3.5L173.94-3.5Q176.29-3.5 178.64-8.95L178.64-8.95 180.49-8.95Q179.29-5.8 178.09-3.95 176.89-2.1 175.76-1.18 174.64-0.25 173.66 0.03 172.69 0.3 171.94 0.3L171.94 0.3Q169.34 0.3 168.24-1.33 167.14-2.95 167.14-5.35L167.14-5.35Q167.14-7 167.51-8.8 167.89-10.6 168.34-12.35 168.79-14.1 169.16-15.73 169.54-17.35 169.54-18.7L169.54-18.7Q169.54-19.95 169.09-20.7 168.64-21.45 167.34-21.45L167.34-21.45Q165.74-21.45 164.61-20.15 163.49-18.85 162.29-16.1L162.29-16.1 158.84 0 153.79 0 157.34-16.7Q157.49-17.4 157.54-17.95 157.59-18.5 157.59-18.95L157.59-18.95Q157.59-20.35 157.04-20.9 156.49-21.45 155.54-21.45L155.54-21.45Q153.94-21.45 152.81-20.13 151.69-18.8 150.49-16.1L150.49-16.1 147.04 0 142.04 0 147.34-25 152.39-25 151.69-21.8Q153.44-24.05 155.04-24.65 156.64-25.25 157.89-25.25L157.89-25.25Q160.39-25.25 161.54-24.05 162.69-22.85 162.94-21.05L162.94-21.05Q163.84-22.45 164.76-23.28 165.69-24.1 166.56-24.55 167.44-25 168.21-25.13 168.99-25.25 169.69-25.25L169.69-25.25Q171.19-25.25 172.19-24.8 173.19-24.35 173.79-23.58 174.39-22.8 174.61-21.78 174.84-20.75 174.84-19.6L174.84-19.6Q174.84-17.95 174.46-16.15 174.09-14.35 173.64-12.6 173.19-10.85 172.81-9.15 172.44-7.45 172.44-5.95ZM196.18-20.1L196.18-20.1Q196.18-15.85 192.86-13.23 189.53-10.6 183.68-10L183.68-10Q183.63-9.6 183.63-9.22 183.63-8.85 183.63-8.45L183.63-8.45Q183.63-5.9 184.61-4.7 185.58-3.5 187.98-3.5L187.98-3.5Q190.38-3.5 192.73-4.75 195.08-6 197.03-8.95L197.03-8.95 198.63-8.95Q197.63-7.1 196.23-5.43 194.83-3.75 193.13-2.48 191.43-1.2 189.51-0.45 187.58 0.3 185.58 0.3L185.58 0.3Q184.13 0.3 182.81-0.15 181.48-0.6 180.46-1.55 179.43-2.5 178.81-4.03 178.18-5.55 178.18-7.7L178.18-7.7Q178.18-9.1 178.48-10.95 178.78-12.8 179.41-14.75 180.03-16.7 181.06-18.6 182.08-20.5 183.48-21.98 184.88-23.45 186.71-24.35 188.53-25.25 190.83-25.25L190.83-25.25Q191.88-25.25 192.83-25.03 193.78-24.8 194.53-24.23 195.28-23.65 195.73-22.65 196.18-21.65 196.18-20.1ZM191.28-22.8L191.28-22.8Q189.88-22.8 188.68-21.83 187.48-20.85 186.56-19.3 185.63-17.75 184.96-15.83 184.28-13.9 183.93-11.95L183.93-11.95Q188.13-12.6 190.63-14.9 193.13-17.2 193.13-20.6L193.13-20.6Q193.13-21.45 192.81-22.13 192.48-22.8 191.28-22.8ZM214.13-8.95L216.23-8.95Q214.53-7.1 212.86-5.85 211.18-4.6 209.63-3.65L209.63-3.65Q209.03-2.55 208.21-1.8 207.38-1.05 206.46-0.58 205.53-0.1 204.56 0.1 203.58 0.3 202.73 0.3L202.73 0.3Q200.83 0.3 199.46-0.28 198.08-0.85 197.18-1.75 196.28-2.65 195.86-3.8 195.43-4.95 195.43-6.1L195.43-6.1Q195.43-7.85 196.26-9.05 197.08-10.25 198.08-10.75L198.08-10.75Q200.18-14.5 201.63-18.18 203.08-21.85 204.23-25.55L204.23-25.55 209.48-26.55Q209.73-21.75 209.96-18.75 210.18-15.75 210.36-13.85 210.53-11.95 210.63-10.78 210.73-9.6 210.73-8.35L210.73-8.35Q210.73-7.9 210.71-7.48 210.68-7.05 210.63-6.65L210.63-6.65Q211.58-7.2 212.48-7.8 213.38-8.4 214.13-8.95L214.13-8.95ZM205.48-8.3L205.48-8.3Q205.48-9.35 205.41-10.25 205.33-11.15 205.18-12.5 205.03-13.85 204.83-15.9 204.63-17.95 204.43-21.2L204.43-21.2Q203.73-18.4 202.76-15.85 201.78-13.3 200.43-10.6L200.43-10.6Q200.73-10.35 200.93-9.95 201.13-9.55 201.13-8.95L201.13-8.95Q201.13-7.75 200.46-7.1 199.78-6.45 199.08-6.45L199.08-6.45Q198.28-6.45 197.88-7.15L197.88-7.15Q197.88-5.4 198.68-4.42 199.48-3.45 201.13-3.45L201.13-3.45Q203.03-3.45 204.26-4.55 205.48-5.65 205.48-8.3Z" opacity="1" transform="matrix(1,0,0,1,0,0)" fill="#d498ca" class="wordmark-text-0" data-fill-palette-color="primary" id="text-0"></path></svg></g></svg></g><g transform="matrix(1,0,0,1,0,114.52161619114548)"><svg viewBox="0 0 395.52 57.25728742094168" height="57.25728742094168" width="395.52"><g transform="matrix(1,0,0,1,0,0)"><svg width="395.52" viewBox="0.5 -33.9 240.74 34.85" height="57.25728742094168" data-palette-color="#d498ca"><path d="M7.45-0.3L6.9-0.7 6.85-2.55Q6.8-3.35 6.8-4.35L6.8-4.35Q6.8-4.85 6.85-5.2L6.85-5.2 6.9-6.1Q6.9-6.6 6.7-7.3L6.7-7.3Q6.7-10.65 6.2-19.75L6.2-19.75Q5.7-28.55 5.65-31.7L5.65-31.7Q2.55-31.7 1.5-31.85L1.5-31.85Q0.5-32.1 0.5-32.65L0.5-32.65Q0.75-33.2 1.45-33.2L1.45-33.2Q2.95-33.2 5.8-33L5.8-33Q8.4-32.75 10.15-32.75L10.15-32.75 11.2-32.75 12.25-32.8Q13.15-32.8 13.15-32.15L13.15-32.15Q13.15-31.85 12.83-31.68 12.5-31.5 12.05-31.5L12.05-31.5Q11.05-31.5 9.95-31.6L9.95-31.6 7.8-31.7Q7.6-31.7 7.6-31.55L7.6-31.55Q7.55-31.4 7.55-30.6L7.55-30.6Q7.55-25.75 8.15-15.9L8.15-15.9Q8.7-5.7 8.7-1.25L8.7-1.25Q8.7-0.9 8.28-0.6 7.85-0.3 7.45-0.3L7.45-0.3ZM31.39 0.85L30.69 0.6Q30.09-0.05 29.39-2.85 28.69-5.65 28.09-9.15L28.09-9.15Q27.69-12 26.94-14.8L26.94-14.8Q26.34-17.3 25.79-17.3L25.79-17.3 25.64-17.3Q24.54-17.3 24.54-16.6L24.54-16.6Q24.54-13 24.94-5.65L24.94-5.65Q25.14-1.15 25.39-0.4L25.39-0.4 24.99 0.45 24.29 0.45 23.89 0.05Q23.09-23.05 23.09-31.45L23.09-31.45Q23.09-32 23.17-32.35 23.24-32.7 23.49-33L23.49-33Q23.69-33.35 24.19-33.35L24.19-33.35Q26.74-33.35 28.29-32.1 29.84-30.85 29.84-28.5L29.84-28.5 29.84-24.85Q29.84-23.9 29.22-22.3 28.59-20.7 27.84-19.35L27.84-19.35 27.19-18.1Q27.74-15.55 29.37-8.93 30.99-2.3 31.14-1.9L31.14-1.9Q31.19-1.85 31.27-1.65 31.34-1.45 31.59-1.05L31.59-1.05Q31.94-0.35 31.94 0.15L31.94 0.15Q31.94 0.85 31.39 0.85L31.39 0.85ZM24.79-18.55Q25.74-18.55 26.49-19.5 27.24-20.45 27.69-21.95L27.69-21.95Q28.49-25 28.49-26.8L28.49-26.8Q28.49-27.95 28.37-28.7 28.24-29.45 27.94-30.3L27.94-30.3Q27.34-32.05 25.09-32.05L25.09-32.05Q24.84-32.05 24.69-31.63 24.54-31.2 24.54-30.75L24.54-30.75Q24.54-27.4 24.64-24.7L24.64-24.7Q24.69-22 24.69-18.65L24.69-18.65 24.79-18.55ZM47.38 0.75Q46.58 0.75 45.66 0.23 44.73-0.3 44.13-1L44.13-1Q43.43-1.9 43.03-6.05 42.63-10.2 42.53-15.55L42.53-15.55Q42.53-16.75 42.48-17.35L42.48-17.35Q42.38-29.9 42.08-32.2L42.08-32.2 42.38-32.9Q43.53-32.75 43.53-30.15L43.53-30.15 43.68-16.9Q43.68-15.5 43.93-11.6L43.93-11.6Q44.23-8.1 44.23-6.3L44.23-6.3Q44.23-0.6 47.98-0.6L47.98-0.6Q50.28-0.6 50.93-11.1L50.93-11.1 50.98-12.1Q51.33-25.85 51.33-32.45L51.33-32.45 51.28-32.9Q51.23-33.1 51.23-33.35L51.23-33.35Q51.23-33.9 52.08-33.9L52.08-33.9Q52.68-33.9 52.83-33.6L52.83-33.6Q52.93-33.1 52.93-31.85L52.93-31.85Q52.93-28.05 52.63-26.75L52.63-26.75 52.68-26.45Q52.68-25.8 52.53-24.45L52.53-24.45 52.43-22.45 52.43-21.95Q52.48-21.75 52.48-21.45L52.48-21.45Q52.38-20.25 52.38-19.15L52.38-19.15Q52.33-18.8 52.33-18.05L52.33-18.05Q52.23-13.3 52.13-9.8L52.13-9.8Q51.98-5.45 50.93-2.45L50.93-2.45Q49.83 0.75 47.38 0.75L47.38 0.75ZM68.87-0.3L68.32-0.7 68.27-2.55Q68.22-3.35 68.22-4.35L68.22-4.35Q68.22-4.85 68.27-5.2L68.27-5.2 68.32-6.1Q68.32-6.6 68.12-7.3L68.12-7.3Q68.12-10.65 67.62-19.75L67.62-19.75Q67.12-28.55 67.07-31.7L67.07-31.7Q63.97-31.7 62.92-31.85L62.92-31.85Q61.92-32.1 61.92-32.65L61.92-32.65Q62.17-33.2 62.87-33.2L62.87-33.2Q64.37-33.2 67.22-33L67.22-33Q69.82-32.75 71.57-32.75L71.57-32.75 72.62-32.75 73.67-32.8Q74.57-32.8 74.57-32.15L74.57-32.15Q74.57-31.85 74.25-31.68 73.92-31.5 73.47-31.5L73.47-31.5Q72.47-31.5 71.37-31.6L71.37-31.6 69.22-31.7Q69.02-31.7 69.02-31.55L69.02-31.55Q68.97-31.4 68.97-30.6L68.97-30.6Q68.97-25.75 69.57-15.9L69.57-15.9Q70.12-5.7 70.12-1.25L70.12-1.25Q70.12-0.9 69.7-0.6 69.27-0.3 68.87-0.3L68.87-0.3ZM93.46 0.55Q93.46 0.05 91.96 0.05L91.96 0.05Q91.71-9.2 91.71-13.35L91.71-13.35 91.56-13.55 91.76-14Q91.76-14.9 91.56-15.85L91.56-15.85 90.81-16.05Q90.36-15.9 89.81-15.9L89.81-15.9Q89.41-15.9 88.16-16.15L88.16-16.15Q87.31-16.4 86.61-16.4L86.61-16.4 86.06-16.2Q86.06-14.45 86.01-13.05L86.01-13.05Q85.96-11.65 85.96-9.9L85.96-9.9 86.06-9.7Q86.06-8.3 86.21-5.5L86.21-5.5Q86.36-2.75 86.36-1.35L86.36-1.35Q86.36-0.8 86.16-0.43 85.96-0.05 85.56-0.05L85.56-0.05Q84.46-0.05 84.46-3.05L84.46-3.05Q84.46-5.6 84.51-7.65L84.51-7.65 84.56-12.2Q84.56-16.75 84.41-17.1L84.41-17.1Q84.66-17.6 84.66-20.4L84.66-20.4Q84.66-22.8 84.46-26.25L84.46-26.25 84.36-28.2 84.26-32.1Q84.26-32.45 84.51-32.75 84.76-33.05 85.11-33.05L85.11-33.05Q86.11-33.05 86.11-30.15L86.11-30.15Q86.11-26.75 86.06-24L86.06-24Q85.96-21.25 85.96-17.95L85.96-17.95Q85.96-17.35 89.76-17.35L89.76-17.35 89.96-17.35Q90.91-17.35 91.34-17.73 91.76-18.1 91.76-19L91.76-19Q91.76-21.65 91.41-25.9L91.41-25.9Q91.11-30.5 91.11-32.8L91.11-32.8Q91.11-33.1 91.36-33.33 91.61-33.55 91.96-33.55L91.96-33.55 92.41-33.4Q92.76-33.35 92.86-33.25L92.86-33.25Q92.86-29.35 93.16-21.6L93.16-21.6Q93.46-13.8 93.46-9.9L93.46-9.9Q93.46-4 93.81 0L93.81 0 93.46 0.55ZM90.31-17.95L90.31-18.05 90.41-17.95 90.31-17.95ZM123.74 0.95Q117.89 0.95 117.89-17.45L117.89-17.45 117.89-19.2Q117.89-33.15 121.49-33.15L121.49-33.15Q121.74-33.15 122.19-33L122.19-33Q123.79-32.45 125.34-32.3L125.34-32.3Q126.29-32.1 127.24-30.35L127.24-30.35Q128.29-28.55 128.82-25.6 129.34-22.65 129.34-19.55L129.34-19.55 129.24-19.3Q129.24-17.65 129.29-16.35L129.29-16.35 129.34-13.35Q129.34-10.8 129.14-8.75L129.14-8.75Q128.84-5.65 128.14-3.4L128.14-3.4Q127.69-2.05 127.12-1.15 126.54-0.25 125.69 0.35L125.69 0.35Q124.89 0.95 123.74 0.95L123.74 0.95ZM123.54-0.5Q125.49-0.5 126.44-3.25L126.44-3.25Q127.39-6.05 127.59-8.95L127.59-8.95Q127.79-11.95 127.79-13.75L127.79-13.75Q127.79-15.75 127.49-19.65L127.49-19.65Q127.24-24 127.24-25.55L127.24-25.55 127.04-25.95 127.14-26.2Q127.14-28.4 125.92-30 124.69-31.6 122.94-31.6L122.94-31.6Q120.64-31.6 120.19-29.4L120.19-29.4Q120.09-28.65 119.99-27.25L119.99-27.25Q119.99-23.55 119.69-22.2L119.69-22.2Q119.69-21.45 119.54-19.85L119.54-19.85 119.44-17.5Q119.44-16.4 119.49-15.55L119.49-15.55 119.54-13.55Q119.54-11.2 119.94-8.15L119.94-8.15Q120.24-5.9 120.64-4.35 121.04-2.8 121.79-1.7L121.79-1.7Q122.54-0.5 123.54-0.5L123.54-0.5ZM148.78 0.85L148.08 0.6Q147.48-0.05 146.78-2.85 146.08-5.65 145.48-9.15L145.48-9.15Q145.08-12 144.33-14.8L144.33-14.8Q143.73-17.3 143.18-17.3L143.18-17.3 143.03-17.3Q141.93-17.3 141.93-16.6L141.93-16.6Q141.93-13 142.33-5.65L142.33-5.65Q142.53-1.15 142.78-0.4L142.78-0.4 142.38 0.45 141.68 0.45 141.28 0.05Q140.48-23.05 140.48-31.45L140.48-31.45Q140.48-32 140.56-32.35 140.63-32.7 140.88-33L140.88-33Q141.08-33.35 141.58-33.35L141.58-33.35Q144.13-33.35 145.68-32.1 147.23-30.85 147.23-28.5L147.23-28.5 147.23-24.85Q147.23-23.9 146.61-22.3 145.98-20.7 145.23-19.35L145.23-19.35 144.58-18.1Q145.13-15.55 146.76-8.93 148.38-2.3 148.53-1.9L148.53-1.9Q148.58-1.85 148.66-1.65 148.73-1.45 148.98-1.05L148.98-1.05Q149.33-0.35 149.33 0.15L149.33 0.15Q149.33 0.85 148.78 0.85L148.78 0.85ZM142.18-18.55Q143.13-18.55 143.88-19.5 144.63-20.45 145.08-21.95L145.08-21.95Q145.88-25 145.88-26.8L145.88-26.8Q145.88-27.95 145.76-28.7 145.63-29.45 145.33-30.3L145.33-30.3Q144.73-32.05 142.48-32.05L142.48-32.05Q142.23-32.05 142.08-31.63 141.93-31.2 141.93-30.75L141.93-30.75Q141.93-27.4 142.03-24.7L142.03-24.7Q142.08-22 142.08-18.65L142.08-18.65 142.18-18.55ZM173.61 0.25Q173.21 0.25 173.21-1.1L173.21-1.1Q173.01-4.55 173.01-9.8L173.01-9.8Q173.01-13.1 173.06-15.7L173.06-15.7 173.11-21.6Q173.11-25.4 172.91-31L172.91-31Q172.46-31.4 172.46-32L172.46-32Q172.46-32.35 172.89-32.73 173.31-33.1 173.66-33.1L173.66-33.1Q174.06-33.1 174.41-32.7L174.41-32.7 174.96-32.25Q175.26-32.1 176.11-31.95L176.11-31.95Q176.96-31.8 177.31-31.65L177.31-31.65Q178.06-31.25 179.31-30.1L179.31-30.1Q180.51-28.9 180.96-28.6L180.96-28.6 180.91-28.5Q180.96-28.2 181.66-27.2L181.66-27.2Q182.21-26.45 182.56-25.8L182.56-25.8Q183.36-23.5 183.36-19.85L183.36-19.85Q183.36-19.2 183.31-18.7L183.31-18.7 183.31-17.5 183.31-17.1 183.26-16.6Q183.26-15.65 183.56-15.1L183.56-15.1Q183.26-13.5 182.81-9.05L182.81-9.05Q182.66-7.75 182.31-6.3 181.96-4.85 181.46-3.9L181.46-3.9Q180.16-1.45 177.11 0.25L177.11 0.25 173.61 0.25ZM175.36-1.2L176.91-1.2Q177.26-1.6 177.56-1.85L177.56-1.85Q177.56-1.85 177.91-2.1L177.91-2.1 178.31-2.45Q181.81-5.6 181.81-14.45L181.81-14.45 181.81-15.4Q181.76-15.8 181.76-16.25L181.76-16.25 181.56-21.3Q181.41-24.2 179.81-27.3L179.81-27.3Q179.06-28.85 177.79-29.83 176.51-30.8 175.11-30.8L175.11-30.8Q174.51-30.8 174.51-21.55L174.51-21.55Q174.51-10.85 175.11-2.9L175.11-2.9 175.06-1.95 175.26-1.85 175.36-1.2ZM204.5 0.45Q203.75 0.45 203.55 0.28 203.35 0.1 203.25-0.65L203.25-0.65Q202.8-4.3 202.7-5.2L202.7-5.2 202.45-7.2Q201.35-7.45 199.95-7.45L199.95-7.45 198.15-7.55Q196.95-7.7 196.4-7.7L196.4-7.7Q196.1-7.7 196.05-7.45L196.05-7.45Q196.05-7.3 196-7.3L196-7.3 195.9-6.3Q195.85-5.4 195.35-2.7L195.35-2.7Q195.1-1.35 194.75-0.6L194.75-0.6Q194.35 0.25 194 0.25L194 0.25Q193.7 0.25 193.35-0.03 193-0.3 193-0.6L193-0.6 193.05-0.75 193.1-0.9Q194-4.45 194.6-7.95L194.6-7.95 195.2-11.05 195.8-14.85Q195.8-14.85 196.35-18.15L196.35-18.15Q196.6-19.5 197.25-22.5L197.25-22.5Q197.95-25.9 198.1-27.15L198.1-27.15Q198.15-27.3 198.3-29L198.3-29Q198.5-30.9 198.65-31.8L198.65-31.8Q198.8-33.1 198.95-33.3L198.95-33.3 199.3-33.3Q199.45-33.25 199.65-33.25L199.65-33.25Q200.25-33.25 200.55-33.55L200.55-33.55Q200.9-33.55 201.18-33.33 201.45-33.1 201.45-32.8L201.45-32.8Q201.45-30.4 201.8-27.3L201.8-27.3Q202-25.7 202.1-24.65L202.1-24.65Q202.65-18.2 204.9-0.45L204.9-0.45 204.9-0.3Q204.9 0.2 204.5 0.45L204.5 0.45ZM201.7-8.55L202.2-8.55Q201.7-15.75 200.3-29.8L200.3-29.8 197.6-16.45Q196.45-10.7 196.45-9.2L196.45-9.2Q196.45-8.95 198.35-8.75 200.25-8.55 201.7-8.55L201.7-8.55ZM223.25 0.85L222.55 0.6Q221.95-0.05 221.25-2.85 220.55-5.65 219.95-9.15L219.95-9.15Q219.55-12 218.8-14.8L218.8-14.8Q218.2-17.3 217.65-17.3L217.65-17.3 217.5-17.3Q216.4-17.3 216.4-16.6L216.4-16.6Q216.4-13 216.8-5.65L216.8-5.65Q217-1.15 217.25-0.4L217.25-0.4 216.85 0.45 216.15 0.45 215.75 0.05Q214.95-23.05 214.95-31.45L214.95-31.45Q214.95-32 215.02-32.35 215.1-32.7 215.35-33L215.35-33Q215.55-33.35 216.05-33.35L216.05-33.35Q218.6-33.35 220.15-32.1 221.7-30.85 221.7-28.5L221.7-28.5 221.7-24.85Q221.7-23.9 221.07-22.3 220.45-20.7 219.7-19.35L219.7-19.35 219.05-18.1Q219.6-15.55 221.22-8.93 222.85-2.3 223-1.9L223-1.9Q223.05-1.85 223.12-1.65 223.2-1.45 223.45-1.05L223.45-1.05Q223.8-0.35 223.8 0.15L223.8 0.15Q223.8 0.85 223.25 0.85L223.25 0.85ZM216.65-18.55Q217.6-18.55 218.35-19.5 219.1-20.45 219.55-21.95L219.55-21.95Q220.35-25 220.35-26.8L220.35-26.8Q220.35-27.95 220.22-28.7 220.1-29.45 219.8-30.3L219.8-30.3Q219.2-32.05 216.95-32.05L216.95-32.05Q216.7-32.05 216.55-31.63 216.4-31.2 216.4-30.75L216.4-30.75Q216.4-27.4 216.5-24.7L216.5-24.7Q216.55-22 216.55-18.65L216.55-18.65 216.65-18.55ZM234.94 0.65Q234.04 0.65 233.94-0.4L233.94-0.4 233.94-1.05Q233.99-1.3 233.99-1.65L233.99-1.65 233.79-1.85Q234.19-2.9 234.19-3.9L234.19-3.9Q234.19-5.05 234.04-7.2L234.04-7.2 233.94-10.5Q233.94-13 234.09-18L234.09-18Q234.29-22.45 234.29-25.55L234.29-25.55 234.19-28.55Q234.09-29.9 234.09-31.55L234.09-31.55Q234.09-32.3 234.44-32.63 234.79-32.95 235.54-32.95L235.54-32.95Q236.04-32.95 236.34-32.65L236.34-32.65Q236.44-32.6 237.79-32.45L237.79-32.45Q239.04-32.3 239.94-32L239.94-32Q240.89-31.7 240.89-31.25L240.89-31.25Q240.89-30.75 239.94-30.25L239.94-30.25Q237.09-31.2 235.89-31.2L235.89-31.2 235.64-30.9Q235.69-30.45 235.69-28.75L235.69-28.75Q235.69-26.6 235.59-24.9L235.59-24.9Q235.54-23.15 235.54-21L235.54-21Q235.54-19.6 236.24-19.6L236.24-19.6 237.04-19.65Q237.44-19.7 237.89-19.7L237.89-19.7Q239.84-19.7 239.84-18.8L239.84-18.8Q239.84-18.25 239.59-17.88 239.34-17.5 238.84-17.5L238.84-17.5Q238.09-17.5 237.69-17.9L237.69-17.9 236.09-18.15 235.84-18.15 235.59-17.9 235.59-17.75Q235.69-16.9 235.69-13.8L235.69-13.8Q235.69-11.85 235.64-10.25L235.64-10.25 235.59-6.7Q235.59-4.75 235.74-2.7L235.74-2.7Q235.79-1.55 236.24-1.18 236.69-0.8 237.89-0.8L237.89-0.8 238.79-0.85Q239.24-0.9 239.79-0.9L239.79-0.9Q241.24-0.9 241.24-0.25L241.24-0.25Q241.24 0.65 239.04 0.65L239.04 0.65 234.94 0.65Z" opacity="1" transform="matrix(1,0,0,1,0,0)" fill="#d498ca" class="slogan-text-1" data-fill-palette-color="secondary" id="text-1"></path></svg></g></svg></g></svg></g></svg></g><g><svg viewBox="0 0 210.4910647243535 237.39844479190447" height="237.39844479190447" width="210.4910647243535"><g><svg xmlns="http://www.w3.org/2000/svg" xmlns:xlink="http://www.w3.org/1999/xlink" version="1.1" x="0" y="0" viewBox="14.007076672657826 10.04546230527896 61.9845572144825 69.90813364502146" enable-background="new 0 0 90 90" xml:space="preserve" height="237.39844479190447" width="210.4910647243535" class="icon-icon-0" data-fill-palette-color="accent" id="icon-0"><g fill="#d498ca" data-fill-palette-color="accent"><path fill-rule="evenodd" clip-rule="evenodd" d="M37.675 28.826c2.184-2.022 4.159-2.735 5.929-2.137 1.747 0.575 2.496 2.115 2.242 4.62-0.736 6.205 1.656 11.501 7.167 15.89 0.691 0.598 1.07 1.332 1.139 2.207 0.115 0.852-0.115 1.621-0.688 2.311-0.508 0.734-1.207 1.148-2.105 1.24-0.92 0.07-1.713-0.148-2.377-0.654-5.631-4.506-8.826-9.731-9.583-15.684-0.965 1.31-1.699 2.7-2.207 4.169-0.62 1.748-0.918 3.596-0.895 5.551 0.021 0.918 0.125 1.859 0.309 2.824 0.115 0.898-0.057 1.713-0.517 2.447-0.528 0.713-1.208 1.162-2.034 1.346-0.873 0.141-1.713-0.059-2.516-0.586-0.668-0.459-1.093-1.137-1.276-2.033-0.254-1.379-0.402-2.713-0.448-3.998-0.045-1.933 0.137-3.781 0.553-5.551C31.401 36.398 33.836 32.411 37.675 28.826zM59.188 11.244c0.805-0.345 1.643-0.712 2.514-1.102 0.277-0.115 0.578-0.128 0.898-0.035 0.252 0.137 0.438 0.355 0.553 0.655 0.113 0.23 0.125 0.482 0.033 0.758l-0.795 2.07c2.898-0.482 5.873-0.69 8.93-0.623 1.195 0.047 2.414 0.115 3.656 0.208 0.273 0.045 0.482 0.127 0.619 0.242 0.184 0.183 0.311 0.413 0.381 0.69 0.045 0.228-0.014 0.458-0.174 0.688-1.447 2.645-3.299 5-5.549 7.067-0.943 0.828-1.934 1.597-2.967 2.31l1.76 0.655c0.252 0.14 0.447 0.31 0.584 0.518 0.115 0.275 0.162 0.517 0.141 0.725-0.094 0.275-0.221 0.505-0.381 0.69-0.896 0.643-1.85 1.218-2.861 1.723-1.471 0.805-3.023 1.39-4.654 1.757h-0.068c-0.023 0-0.057 0.013-0.105 0.035l0.725 0.552c0.23 0.138 0.381 0.32 0.449 0.553 0.092 0.275 0.068 0.54-0.068 0.792-0.115 0.23-0.311 0.402-0.588 0.515-2.389 0.99-4.838 1.127-7.342 0.415v0.07c-3.287-0.92-5.734-2.875-7.342-5.862h-0.068c-1.978-3.882-1.783-7.709 0.586-11.479 1.195-1.862 2.744-3.333 4.652-4.412 0.184-0.185 0.424-0.22 0.725-0.105 0.275 0.025 0.518 0.172 0.723 0.45 0.162 0.205 0.207 0.435 0.139 0.688l-0.139 1.415C55.807 12.899 57.484 12.027 59.188 11.244zM69.873 52.302c1.287 1.107 2.332 2.391 3.139 3.863 1.146 1.906 1.801 3.951 1.965 6.135 0.137 2.184-0.164 4.299-0.898 6.344-0.734 2.068-1.885 3.838-3.447 5.311-1.607 1.518-3.457 2.643-5.549 3.377-1.771 0.598-3.621 0.84-5.551 0.725-2.207-0.186-4.287-0.793-6.238-1.828-1.887-1.012-3.449-2.412-4.689-4.203-1.332-1.84-2.16-3.854-2.482-6.035-0.275-2.092 0-4.113 0.828-6.068 0.598-1.447 1.504-2.641 2.723-3.584 0.918-0.666 1.918-1.127 2.998-1.379 0.941-0.23 1.955-0.355 3.035-0.379 1.102-1.979 2.643-3.461 4.619-4.447 1.217-0.486 2.447-0.633 3.688-0.451C66.242 49.981 68.195 50.854 69.873 52.302zM66.701 61.06c0.943-0.943 1.412-2.08 1.412-3.412 0-1.336-0.469-2.469-1.412-3.414-0.941-0.939-2.08-1.414-3.412-1.414s-2.471 0.475-3.414 1.414c-0.941 0.945-1.414 2.078-1.414 3.414 0 1.332 0.473 2.469 1.414 3.412 0.943 0.941 2.082 1.412 3.414 1.412S65.76 62.001 66.701 61.06zM43.226 64.095c0.115 1.699-0.058 3.354-0.517 4.961-0.553 2.141-1.529 4.035-2.931 5.689-1.472 1.656-3.184 2.943-5.138 3.863-1.977 0.939-4.033 1.391-6.172 1.342-2.206-0.045-4.319-0.549-6.342-1.514-1.701-0.854-3.184-2.014-4.447-3.482-1.425-1.678-2.46-3.576-3.103-5.689-0.597-2.023-0.725-4.113-0.38-6.275 0.367-2.252 1.219-4.262 2.551-6.033 1.264-1.676 2.896-2.918 4.896-3.721 1.425-0.6 2.907-0.785 4.447-0.555 1.103 0.16 2.113 0.529 3.032 1.105 0.851 0.508 1.667 1.127 2.448 1.861 2.184-0.619 4.321-0.574 6.412 0.137 1.219 0.527 2.184 1.301 2.896 2.311C42.26 59.888 43.042 61.886 43.226 64.095zM38.779 60.784c-0.943-0.941-2.079-1.414-3.415-1.414-1.332 0-2.469 0.473-3.412 1.414-0.942 0.943-1.412 2.08-1.412 3.412s0.47 2.471 1.412 3.412c0.943 0.943 2.08 1.416 3.412 1.416 1.336 0 2.472-0.473 3.415-1.416 0.942-0.941 1.413-2.08 1.413-3.412S39.721 61.728 38.779 60.784z" fill="#d498ca" data-fill-palette-color="accent"></path></g></svg></g></svg></g></svg></g></svg></g></svg></g><defs></defs></svg><rect width="395.5199999999999" height="149.54343526635157" fill="none" stroke="none" visibility="hidden"></rect></g></svg></g></svg>